<?xml version="1.0" encoding="UTF-8"?>
<svg version="1.1" xmlns="http://www.w3.org/2000/svg" width="2027" height="668">
<path d="M0 0 C0.66 0 1.32 0 2 0 C1.44362486 10.47588383 0.3858248 20.80551602 -1.125 31.1875 C-1.28589615 32.30325912 -1.28589615 32.30325912 -1.45004272 33.44155884 C-12.90392119 112.27817239 -36.8270496 190.76995302 -124 310 C-124.56799316 310.61842773 -125.13598633 311.23685547 -125.72119141 311.87402344 C-127.66288788 313.98358271 -129.61171721 316.08634236 -131.5625 318.1875 C-132.17577148 318.85305908 -132.78904297 319.51861816 -133.42089844 320.2043457 C-137.12585443 324.17330695 -140.97818703 327.82586569 -145.1003418 331.35864258 C-147.33149227 333.28641852 -149.47139162 335.29592051 -151.61254883 337.32226562 C-158.15897284 343.50200535 -165.00143795 349.15651696 -172.16552734 354.60253906 C-174.03146121 356.02396646 -175.8849973 357.46056962 -177.73828125 358.8984375 C-193.30192448 370.8762426 -209.90847533 381.3493952 -227 391 C-228.30565918 391.7420166 -228.30565918 391.7420166 -229.63769531 392.49902344 C-289.41586047 426.28668201 -357.83123255 445.88718667 -426.0625 452.25 C-426.89249512 452.33024414 -427.72249023 452.41048828 -428.57763672 452.49316406 C-437.76451185 453.25858865 -446.69008952 453 -456 453 C-456 373.47 -456 293.94 -456 212 C-437.78815372 213.13824039 -437.78815372 213.13824039 -430 213.90234375 C-428.21001679 214.07187983 -426.41997515 214.24079984 -424.62988281 214.40917969 C-423.25539978 214.53891174 -423.25539978 214.53891174 -421.85314941 214.67126465 C-330.76870405 223.17060899 -231.97186706 224.59186023 -81.19702148 151.11352539 C-34.53237963 112.18566508 -15.97268386 56.70478037 0 0 Z " fill="#33BC1D" transform="translate(456,0)"/>
<path d="M0 0 C0 79.86 0 159.72 0 242 C-17.49 240.35 -34.98 238.7 -53 237 C-75.31154504 235.34154022 -97.37977225 234.65090033 -119.72729492 234.68432617 C-123.02528554 234.68894986 -126.32290651 234.68203272 -129.62084961 234.66381836 C-211.722487 234.21544451 -305.47724901 244.75984015 -371 299 C-371.57733887 299.4758252 -372.15467773 299.95165039 -372.74951172 300.44189453 C-420.98614442 340.42426944 -439.40975885 394.65867227 -456 453 C-456.66 453 -457.32 453 -458 453 C-452.32884055 366.85704357 -426.02617597 277.9322631 -336.5546875 148.80078125 C-334.57250475 146.62765429 -332.64224455 144.43046074 -330.72265625 142.203125 C-326.84900927 137.76317677 -322.73889384 133.59133906 -318.5625 129.4375 C-317.85029297 128.72142578 -317.13808594 128.00535156 -316.40429688 127.26757812 C-311.76652766 122.63823356 -306.96972076 118.26840397 -302 114 C-300.95185787 113.0743495 -299.90490653 112.14734819 -298.859375 111.21875 C-233.42535149 53.71739515 -148.61184363 18.85909689 -43.0625 2.6875 C-42.37569153 2.60600708 -41.68888306 2.52451416 -40.98126221 2.44055176 C-27.32183045 0.84614883 -13.76186035 0 0 0 Z " fill="#2FB51F" transform="translate(670,215)"/>
<path d="M0 0 C72.6 0 145.2 0 220 0 C215.27063375 21.28214812 215.27063375 21.28214812 211.9375 31.125 C211.55319824 32.26388672 211.16889648 33.40277344 210.77294922 34.57617188 C190.92946262 91.81547401 151.57582012 139.93337233 96.875 166.6875 C74.35581599 177.35863779 50.61678904 183.41898298 26 186.8125 C24.67633423 186.99872925 24.67633423 186.99872925 23.32592773 187.1887207 C15.40390122 188.18199783 8.16833112 188 0 188 C0 125.96 0 63.92 0 0 Z " fill="#2AAB26" transform="translate(213,0)"/>
<path d="M0 0 C0 62.04 0 124.08 0 188 C-71.94 188 -143.88 188 -218 188 C-216.87282015 176.72820151 -216.87282015 176.72820151 -215.46875 172.109375 C-215.15776367 171.08175049 -214.84677734 170.05412598 -214.52636719 168.99536133 C-214.18766602 167.92439209 -213.84896484 166.85342285 -213.5 165.75 C-213.14325195 164.61393311 -212.78650391 163.47786621 -212.41894531 162.30737305 C-204.40760315 137.32683683 -193.38623613 113.32649185 -178 92 C-177.28585937 90.99324219 -176.57171875 89.98648438 -175.8359375 88.94921875 C-164.36478935 73.20246083 -151.28662848 59.07807143 -136 47 C-135.03578125 46.20722656 -134.0715625 45.41445313 -133.078125 44.59765625 C-96.47730416 15.19623545 -46.6370582 0 0 0 Z " fill="#2EB420" transform="translate(456,480)"/>
<path d="M0 0 C2.2532645 0.0031504 4.5051982 -0.02035785 6.75830078 -0.0456543 C33.2023393 -0.16309997 57.15239902 8.15884446 76.43017578 26.62426758 C92.80769774 43.73217645 98.55643262 65.44868474 98.44140625 88.62475586 C97.79265978 117.31997214 88.50883698 145.19021294 70.02001953 167.31567383 C69.18857422 168.31083008 68.35712891 169.30598633 67.50048828 170.33129883 C45.78590643 195.48912391 13.90812352 210.56117665 -18.97998047 213.31567383 C-47.28380045 215.00158852 -75.45533517 210.55591609 -97.56201172 191.47973633 C-98.35994141 190.7655957 -99.15787109 190.05145508 -99.97998047 189.31567383 C-100.60259766 188.7871582 -101.22521484 188.25864258 -101.86669922 187.71411133 C-118.55135027 172.54624673 -124.69641693 150.55042575 -126.22607422 128.81958008 C-126.94584511 94.90566941 -114.63716589 62.0896477 -91.51000977 37.39355469 C-74.12436326 19.48551255 -51.37866703 7.3784144 -26.97998047 2.31567383 C-26.12581543 2.13238525 -25.27165039 1.94909668 -24.39160156 1.76025391 C-16.26846217 0.19843166 -8.24001149 -0.02397934 0 0 Z M-50.59716797 63.83911133 C-65.71866115 79.5555485 -72.40336588 99.85939361 -72.19091797 121.40161133 C-71.41074998 135.87806175 -65.73674926 148.49677278 -54.97998047 158.31567383 C-45.54072298 165.38737985 -35.70487552 167.86895118 -24.04248047 167.69067383 C-23.07246094 167.67979736 -22.10244141 167.6689209 -21.10302734 167.65771484 C-14.32701907 167.50656651 -8.26940979 167.00567328 -1.97998047 164.31567383 C-0.85462891 163.84000977 0.27072266 163.3643457 1.43017578 162.87426758 C9.48017588 159.25669125 15.77741427 154.56952703 22.02001953 148.31567383 C22.64263672 147.76395508 23.26525391 147.21223633 23.90673828 146.64379883 C35.70962821 135.92836617 43.18628681 117.93330822 44.15698242 102.07861328 C44.85603181 84.68660147 42.54137451 70.37122451 30.39501953 57.06567383 C7.09195449 34.97025323 -29.3596872 43.93313406 -50.59716797 63.83911133 Z " fill="#1E1E1C" transform="translate(1019.97998046875,229.684326171875)"/>
<path d="M0 0 C11.84932434 -0.06988274 23.69859868 -0.12300405 35.54808807 -0.15543652 C41.05182742 -0.17101193 46.55542452 -0.19209969 52.05908203 -0.22631836 C57.38241449 -0.25920418 62.70561117 -0.27691389 68.02903748 -0.28463173 C70.04774611 -0.29012328 72.06644834 -0.30084484 74.08509827 -0.31719017 C95.14869215 -0.48077443 117.52207046 1.21436302 133.75 16.3125 C141.52115081 24.50849732 143.47432688 34.74786868 143.25 45.75390625 C142.0901179 60.81425034 136.77553869 74.41166808 125.19921875 84.421875 C111.5963031 95 111.5963031 95 105 95 C105 95.66 105 96.32 105 97 C106.4540625 97.0928125 106.4540625 97.0928125 107.9375 97.1875 C116.88674432 98.50462668 124.85841536 105.03009843 130.50390625 111.8046875 C137.74999942 122.23040962 137.94642991 134.31371695 135.8125 146.3125 C132.26195579 162.8266591 124.04241392 177.60278438 109.76953125 187.1640625 C88.85859502 199.89860758 66.85751957 202.64150349 42.828125 202.390625 C40.68195124 202.38314006 38.53577052 202.37745783 36.3895874 202.37347412 C30.81325519 202.35839484 25.23735749 202.31927153 19.66119385 202.2746582 C13.94215773 202.2333175 8.22304957 202.21538129 2.50390625 202.1953125 C-8.66425063 202.15275538 -19.83208882 202.08472619 -31 202 C-30.37410873 191.80461666 -28.83721285 181.8108747 -27.24023438 171.73461914 C-26.95563257 169.91838213 -26.67140743 168.10208606 -26.38752747 166.28573608 C-25.62076974 161.38689047 -24.8487098 156.48889415 -24.07559395 151.59104848 C-23.26564176 146.45426798 -22.46043943 141.3167429 -21.65466309 136.17930603 C-20.30241303 127.56203953 -18.94699305 118.9452767 -17.58935547 110.32885742 C-15.84696485 99.27048187 -14.10950867 88.21133715 -12.37371063 77.15192509 C-10.87948304 67.63167889 -9.38336464 58.11173001 -7.88675117 48.59185863 C-7.56590612 46.5508067 -7.24512461 44.50974479 -6.92440605 42.46867299 C-6.01099049 36.65568206 -5.09657456 30.84285049 -4.18045616 25.03028488 C-3.90315653 23.26990628 -3.62620758 21.50947241 -3.34963417 19.74897957 C-2.97222622 17.34711064 -2.59352413 14.94544929 -2.21447754 12.5438385 C-2.05061373 11.49822481 -2.05061373 11.49822481 -1.88343954 10.43148762 C-1.33035209 6.93672896 -0.72410886 3.46352019 0 0 Z M42 40 C41.14133772 45.05301436 40.28695944 50.10672743 39.43652344 55.16113281 C39.1466819 56.88008119 38.85567568 58.59883362 38.56347656 60.31738281 C38.14340955 62.78920571 37.72755141 65.26170562 37.3125 67.734375 C37.18125732 68.50118591 37.05001465 69.26799683 36.91479492 70.05804443 C36.35058616 73.44187798 36 76.55744177 36 80 C40.6589823 80.07487239 45.31760455 80.12893832 49.97705078 80.16479492 C51.55784211 80.17976271 53.13859278 80.20014437 54.71923828 80.22631836 C66.15602973 80.41078274 76.92817544 80.50373012 86.23828125 72.85546875 C90.83283855 68.01641173 93.25180277 62.40493428 93.5625 55.75 C93.28156525 51.15419562 92.24248624 48.40461055 89 45 C82.29050969 40.64373385 75.97349124 39.84555272 68.07421875 39.90234375 C67.32662796 39.9037587 66.57903717 39.90517365 65.80879211 39.90663147 C63.43498635 39.91220236 61.06127697 39.9247494 58.6875 39.9375 C57.07226699 39.94251877 55.4570325 39.94708101 53.84179688 39.95117188 C49.89449445 39.96216225 45.94726353 39.97940668 42 40 Z M30 117 C28.0946551 126.91373514 26.32609123 136.82986525 24.8125 146.8125 C24.63525391 147.95525391 24.45800781 149.09800781 24.27539062 150.27539062 C23.33653877 156.1126379 23.33653877 156.1126379 23 162 C28.06792065 162.07488403 33.13551005 162.12894412 38.20385742 162.16479492 C39.92331563 162.17976073 41.64273648 162.20014077 43.36206055 162.22631836 C56.83372949 162.42610176 70.07297689 162.41424371 80.49609375 152.58984375 C85.89601621 146.58102796 87.61001835 140.48193655 87.33984375 132.58203125 C86.7361584 127.99541038 84.81421814 125.52821199 81.33984375 122.6015625 C71.24192395 115.4272704 58.10769251 116.74406583 46.3125 116.875 C44.72461505 116.88505504 43.1367239 116.8941764 41.54882812 116.90234375 C37.69906275 116.92414557 33.84960173 116.95853441 30 117 Z " fill="#1E1E1C" transform="translate(1163,235)"/>
<path d="M0 0 C11.42362993 -0.06997556 22.84720762 -0.12305011 34.27100945 -0.15543652 C39.57739794 -0.17099215 44.88363819 -0.19204231 50.18994141 -0.22631836 C55.32525178 -0.25927658 60.46042091 -0.27692863 65.59582901 -0.28463173 C67.54031722 -0.29011061 69.48479902 -0.30080605 71.42922592 -0.31719017 C92.93958173 -0.49098229 112.65895551 1.72666948 131 14 C132.36125 14.8971875 132.36125 14.8971875 133.75 15.8125 C141.42873048 23.27793241 146.04831961 33.43461265 146.49609375 44.12109375 C146.49740074 46.22665268 146.47770976 48.33232464 146.4375 50.4375 C146.44458984 51.47970703 146.45167969 52.52191406 146.45898438 53.59570312 C146.31351736 71.64480276 139.31881561 86.18220878 126.98046875 99.1171875 C118.08980731 107.59548059 107.74282241 112.81112074 96 116 C96.76123169 117.63521606 96.76123169 117.63521606 97.5378418 119.3034668 C107.36960957 140.43178994 117.14364321 161.57797101 126.59228516 182.88085938 C128.62640484 187.38795495 130.75341478 191.85096228 132.88745117 196.31152344 C134 199 134 199 134 202 C114.86 202 95.72 202 76 202 C70.37552587 187.6405471 64.75340645 173.28022309 59.14001465 158.91644287 C58.08381496 156.21441964 57.02688475 153.51268349 55.96972656 150.81103516 C54.5258378 147.1201203 53.08533695 143.42790436 51.64807129 139.73440552 C51.13387384 138.41450622 50.61849802 137.09506536 50.10192871 135.77609253 C49.39552525 133.97175257 48.69371385 132.16561676 47.9921875 130.359375 C47.60401855 129.36389648 47.21584961 128.36841797 46.81591797 127.34277344 C46 125 46 125 46 123 C40.72 123 35.44 123 30 123 C29.83781982 124.24152832 29.67563965 125.48305664 29.50854492 126.76220703 C27.37736072 142.84303959 24.86711247 158.85677994 22.3125 174.875 C21.89208923 177.52075581 21.47238324 180.16662325 21.05273438 182.8125 C20.03805224 189.20880002 19.0189428 195.60437162 18 202 C1.83 202 -14.34 202 -31 202 C-29.85130914 188.21570967 -29.85130914 188.21570967 -28.78552246 181.567276 C-28.66695058 180.80509355 -28.54837871 180.04291109 -28.42621374 179.2576322 C-28.03494639 176.74930656 -27.63762441 174.24198143 -27.24023438 171.73461914 C-26.95563257 169.91838213 -26.67140743 168.10208606 -26.38752747 166.28573608 C-25.62076974 161.38689047 -24.8487098 156.48889415 -24.07559395 151.59104848 C-23.26564176 146.45426798 -22.46043943 141.3167429 -21.65466309 136.17930603 C-20.30241303 127.56203953 -18.94699305 118.9452767 -17.58935547 110.32885742 C-15.84696485 99.27048187 -14.10950867 88.21133715 -12.37371063 77.15192509 C-10.87948304 67.63167889 -9.38336464 58.11173001 -7.88675117 48.59185863 C-7.56590612 46.5508067 -7.24512461 44.50974479 -6.92440605 42.46867299 C-6.01099049 36.65568206 -5.09657456 30.84285049 -4.18045616 25.03028488 C-3.90315653 23.26990628 -3.62620758 21.50947241 -3.34963417 19.74897957 C-2.97222622 17.34711064 -2.59352413 14.94544929 -2.21447754 12.5438385 C-2.05061373 11.49822481 -2.05061373 11.49822481 -1.88343954 10.43148762 C-1.33035209 6.93672896 -0.72410886 3.46352019 0 0 Z M42 41 C41.48226928 43.80442228 41.01844383 46.59955394 40.58984375 49.41796875 C40.45808243 50.26796951 40.32632111 51.11797028 40.19056702 51.99372864 C39.91202264 53.79831961 39.63559121 55.60323777 39.36108398 57.40844727 C38.94178371 60.15939543 38.51336823 62.9088131 38.08398438 65.65820312 C37.81454882 67.41137308 37.54565154 69.16462585 37.27734375 70.91796875 C37.14923813 71.73694138 37.02113251 72.555914 36.8891449 73.39970398 C36.25063916 77.64448135 35.85860058 81.6918579 36 86 C40.46161319 86.10032167 44.92259567 86.17213763 49.38500977 86.21972656 C50.89684512 86.23960437 52.4086061 86.26671673 53.92016602 86.30175781 C66.76195505 86.59158246 79.72712396 85.82237289 89.578125 76.5078125 C94.60911658 71.20817573 96.55629236 65.61304797 97.4375 58.4375 C96.6873299 52.54330636 94.72759822 48.42714636 90.125 44.625 C82.52116007 40.67100324 75.06453712 39.87481737 66.5703125 39.8671875 C65.89451141 39.86623077 65.21871033 39.86527405 64.52243042 39.86428833 C63.10902817 39.86361321 61.6956227 39.86542044 60.28222656 39.86962891 C58.10995672 39.87503745 55.93788893 39.86963576 53.765625 39.86328125 C52.38802038 39.86394117 51.01041588 39.86522053 49.6328125 39.8671875 C47.75940186 39.86887939 47.75940186 39.86887939 45.84814453 39.87060547 C43.10054388 39.67469393 43.10054388 39.67469393 42 41 Z " fill="#1E1E1C" transform="translate(1881,235)"/>
<path d="M0 0 C16.17 0 32.34 0 49 0 C54.74228976 20.67224313 54.74228976 20.67224313 56.62109375 28.02954102 C56.84208677 28.8887254 57.0630798 29.74790979 57.29076958 30.63313007 C58.0079579 33.42297774 58.72272166 36.21344026 59.4375 39.00390625 C59.9562963 41.02349275 60.47527305 43.04303291 60.99441528 45.06253052 C62.09489452 49.34461779 63.19439018 53.62695575 64.29302979 57.90951538 C67.1890993 69.19842704 70.09053789 80.48595907 72.9921875 91.7734375 C73.2849847 92.912666 73.57778191 94.05189449 73.87945175 95.22564507 C78.02579021 111.35654815 82.19298319 127.48190224 86.3828125 143.6015625 C86.63076317 144.55583319 86.87871384 145.51010387 87.13417816 146.49329185 C89.48184793 155.52858145 91.83137518 164.56337966 94.1873188 173.59651566 C95.03583563 176.85170842 95.88248159 180.10738571 96.7286644 183.36318588 C97.11896972 184.86301656 97.51015796 186.36261778 97.90228653 187.86197281 C98.43198993 189.88748426 98.95878347 191.91373048 99.48486328 193.94018555 C99.7795047 195.07006393 100.07414612 196.19994232 100.37771606 197.36405945 C101 200 101 200 101 202 C82.85 202 64.7 202 46 202 C43.57819597 194.73458792 41.58248826 187.67083967 39.8125 180.25 C39.40354492 178.58517578 39.40354492 178.58517578 38.98632812 176.88671875 C38.72916016 175.81550781 38.47199219 174.74429688 38.20703125 173.640625 C37.9747583 172.67672852 37.74248535 171.71283203 37.50317383 170.71972656 C37 168 37 168 37 163 C11.26 163 -14.48 163 -41 163 C-41.66 164.65 -42.32 166.3 -43 168 C-44.18740683 170.4016418 -45.39189588 172.78624708 -46.625 175.1640625 C-46.97256348 175.83795013 -47.32012695 176.51183777 -47.67822266 177.20614624 C-48.41002324 178.62368127 -49.14295446 180.04063313 -49.87695312 181.45703125 C-50.99918145 183.62341985 -52.11702818 185.7920279 -53.234375 187.9609375 C-53.94765706 189.34128001 -54.66119013 190.72149286 -55.375 192.1015625 C-55.70838379 192.74848053 -56.04176758 193.39539856 -56.38525391 194.06192017 C-57.81417752 196.81422191 -59.27734747 199.41602121 -61 202 C-63.32852173 202.36076355 -63.32852173 202.36076355 -66.27587891 202.34057617 C-67.92736435 202.34023628 -67.92736435 202.34023628 -69.61221313 202.33988953 C-70.80494843 202.32440567 -71.99768372 202.30892181 -73.2265625 202.29296875 C-74.44451508 202.28872391 -75.66246765 202.28447906 -76.91732788 202.28010559 C-80.82010704 202.26326831 -84.72237604 202.22560595 -88.625 202.1875 C-91.26561756 202.17245974 -93.90624319 202.15877019 -96.546875 202.14648438 C-103.03142504 202.11334822 -109.51567608 202.06309861 -116 202 C-115.24904053 200.69071533 -115.24904053 200.69071533 -114.48291016 199.35498047 C-110.62736538 192.62509279 -106.8029702 185.87991966 -103.03173828 179.10229492 C-97.26643998 168.7415798 -91.38736991 158.45637904 -85.38989258 148.22851562 C-80.89540489 140.55679339 -76.46587594 132.84925033 -72.0625 125.125 C-65.03438099 112.79951217 -57.95759399 100.50277644 -50.85888672 88.21777344 C-47.73675395 82.81329355 -44.61858796 77.40652588 -41.5 72 C-40.25001878 69.8333225 -39.00001879 67.66665583 -37.75 65.5 C-37.13125 64.4275 -36.5125 63.355 -35.875 62.25 C-30.25 52.5 -30.25 52.5 -28.37231445 49.24536133 C-27.13124746 47.09416776 -25.89019907 44.94296345 -24.64916992 42.79174805 C-21.73501656 37.74037001 -18.82068182 32.6890969 -15.90567017 27.63821411 C-14.87326522 25.84933082 -13.84092044 24.06041283 -12.80859375 22.27148438 C-11.51314052 20.02662364 -10.2175743 17.7818281 -8.921875 15.53710938 C-8.33535156 14.52068359 -7.74882813 13.50425781 -7.14453125 12.45703125 C-6.63253174 11.56991455 -6.12053223 10.68279785 -5.59301758 9.76879883 C-3.72180666 6.51647652 -1.86161423 3.25782491 0 0 Z M15 57 C10.75608468 63.29943968 7.34000697 69.98119607 3.8963623 76.74285889 C-1.63740756 87.60503975 -7.29856255 98.38222937 -13.23071289 109.03369141 C-13.91315063 110.26611572 -13.91315063 110.26611572 -14.609375 111.5234375 C-15.00092773 112.22388184 -15.39248047 112.92432617 -15.79589844 113.64599609 C-17.3526379 116.6894028 -18.65340878 119.85795382 -20 123 C-3.83 123 12.34 123 29 123 C24.80418032 100.97194667 20.4182757 78.98433865 16 57 C15.67 57 15.34 57 15 57 Z " fill="#1E1E1C" transform="translate(1733,235)"/>
<path d="M0 0 C45.21 0 90.42 0 137 0 C135.34761523 14.04527054 133.23432309 28.03548066 131 42 C101.63 42 72.26 42 42 42 C41.34 47.28 40.68 52.56 40 58 C39.49928618 61.46426885 38.98909273 64.91951964 38.4375 68.375 C38.31181641 69.19226563 38.18613281 70.00953125 38.05664062 70.8515625 C37.12357181 76.75285639 37.12357181 76.75285639 36 79 C63.72 79 91.44 79 120 79 C118.17833636 92.35886669 116.21650917 105.70094496 114 119 C86.28 119 58.56 119 30 119 C28.515 129.89 28.515 129.89 27 141 C25.515 150.405 25.515 150.405 24 160 C54.69 160 85.38 160 117 160 C115.34761523 174.04527054 113.23432309 188.03548066 111 202 C64.14 202 17.28 202 -31 202 C-28.70264995 182.47252459 -28.70264995 182.47252459 -27.65853882 175.93235779 C-27.53840695 175.16237538 -27.41827508 174.39239297 -27.29450285 173.59907776 C-26.90300615 171.0947768 -26.50696854 168.59121854 -26.11083984 166.08764648 C-25.82455489 164.26254582 -25.53855785 162.43739998 -25.25282288 160.61221313 C-24.48520813 155.71415618 -23.71362707 150.81673179 -22.94126844 145.91942096 C-22.13147638 140.78023263 -21.32542211 135.64045806 -20.51895142 130.50074768 C-18.99520009 120.79338566 -17.46814465 111.0865465 -15.93986666 101.37989622 C-13.87208062 88.24537011 -11.8094701 75.11003133 -9.74655151 61.97474003 C-6.50189854 41.31583168 -3.25039294 20.65800792 0 0 Z " fill="#1D1D1C" transform="translate(1352,235)"/>
<path d="M0 0 C4.14738604 3.65624822 7.96290147 7.31425442 11.234375 11.79296875 C11.234375 12.45296875 11.234375 13.11296875 11.234375 13.79296875 C9.68197159 15.18622829 8.06407515 16.50677003 6.421875 17.79296875 C2.39490206 21.01042217 -1.47619512 24.29335097 -5.265625 27.79296875 C-9.81716464 31.98534816 -14.51987989 35.92523112 -19.35546875 39.78515625 C-21.80433475 41.74362372 -21.80433475 41.74362372 -23.89453125 44.05078125 C-25.765625 45.79296875 -25.765625 45.79296875 -28.765625 45.79296875 C-30.08984375 44.21875 -30.08984375 44.21875 -31.453125 42.10546875 C-37.35585877 33.94241985 -46.03858592 30.62106554 -55.765625 28.79296875 C-74.62956574 26.90538252 -90.77256827 30.98321603 -105.953125 42.60546875 C-121.88955619 55.94466511 -130.77007152 74.18136161 -132.765625 94.79296875 C-133.95669798 109.19578965 -131.06011561 123.44570721 -121.765625 134.79296875 C-114.00476101 143.26376624 -103.85226072 147.98750785 -92.45483398 148.99780273 C-90.11669537 149.09523551 -87.79319256 149.1223055 -85.453125 149.10546875 C-84.20873657 149.09700928 -84.20873657 149.09700928 -82.93920898 149.08837891 C-65.64710813 148.74855943 -52.78218601 141.76222047 -40.765625 129.79296875 C-37.64726167 131.16649803 -35.64697072 132.71135848 -33.33984375 135.20703125 C-32.70755859 135.88636719 -32.07527344 136.56570313 -31.42382812 137.265625 C-30.44833008 138.33103516 -30.44833008 138.33103516 -29.453125 139.41796875 C-28.81439453 140.10503906 -28.17566406 140.79210937 -27.51757812 141.5 C-23.17764882 146.18729953 -18.94828382 150.96519952 -14.765625 155.79296875 C-13.5590625 157.18515625 -13.5590625 157.18515625 -12.328125 158.60546875 C-10.765625 160.79296875 -10.765625 160.79296875 -10.765625 163.79296875 C-14.09397017 167.17667102 -17.96414951 169.9610697 -21.765625 172.79296875 C-22.33297363 173.21594238 -22.90032227 173.63891602 -23.48486328 174.07470703 C-49.09791514 192.84049356 -81.75036882 199.33599374 -113.02954102 194.97045898 C-136.98525198 191.06022993 -157.67294932 180.16565694 -172.765625 160.79296875 C-183.5284991 144.88024053 -188.36789943 127.94368991 -188.203125 108.73046875 C-188.19555176 107.47331055 -188.18797852 106.21615234 -188.18017578 104.92089844 C-187.59237438 71.22314485 -174.48949786 40.75442695 -150.51269531 17.12426758 C-134.55740148 1.99607918 -114.94935647 -8.52655914 -93.765625 -14.20703125 C-92.5178125 -14.54605469 -91.27 -14.88507813 -89.984375 -15.234375 C-61.11358236 -21.6012063 -23.78473109 -18.98075292 0 0 Z " fill="#1E1E1C" transform="translate(887.765625,247.20703125)"/>
<path d="M0 0 C44.22 0 88.44 0 134 0 C132.74904202 10.00766384 131.47070079 19.97460971 129.9375 29.9375 C129.76412109 31.09701172 129.59074219 32.25652344 129.41210938 33.45117188 C129.24388672 34.54880859 129.07566406 35.64644531 128.90234375 36.77734375 C128.75273193 37.75952881 128.60312012 38.74171387 128.44897461 39.75366211 C128 42 128 42 127 43 C124.38311559 43.09509559 121.792711 43.12556 119.17553711 43.11352539 C118.35609116 43.11367142 117.5366452 43.11381744 116.69236755 43.1139679 C113.97066647 43.11326852 111.24903295 43.10547501 108.52734375 43.09765625 C106.64547259 43.09579216 104.76360094 43.09436821 102.88172913 43.09336853 C97.91851471 43.08954267 92.95532936 43.07971181 87.99212646 43.06866455 C82.04252473 43.05665764 76.09291329 43.05204852 70.14330292 43.04621124 C61.09551503 43.03650008 52.04779099 43.01734401 43 43 C40.03 62.8 40.03 62.8 37 83 C62.41 83 87.82 83 114 83 C112.87411321 97.6365283 112.87411321 97.6365283 112.0625 102.6328125 C111.80339844 104.2415625 111.80339844 104.2415625 111.5390625 105.8828125 C111.27222656 107.48769531 111.27222656 107.48769531 111 109.125 C110.73316406 110.78789062 110.73316406 110.78789062 110.4609375 112.484375 C109.14237351 120.57287946 109.14237351 120.57287946 108 124 C82.26 124 56.52 124 30 124 C29.34 129.28 28.68 134.56 28 140 C27.30998986 144.70746383 26.6056679 149.40905234 25.87109375 154.109375 C25.67653091 155.36461975 25.48196808 156.6198645 25.2815094 157.91314697 C24.77240148 161.19306753 24.26108092 164.47263327 23.74890137 167.7520752 C23.33011799 170.43895385 22.91449966 173.12631838 22.4988699 175.81368637 C21.99981659 179.03754056 21.49785802 182.26094181 20.99609375 185.484375 C20.81066513 186.68221619 20.62523651 187.88005737 20.43418884 189.11419678 C20.26053299 190.2234552 20.08687714 191.33271362 19.90795898 192.47558594 C19.68051247 193.93541901 19.68051247 193.93541901 19.44847107 195.42474365 C19.06342921 197.6357703 18.54432344 199.82270626 18 202 C1.83 202 -14.34 202 -31 202 C-29.85130914 188.21570967 -29.85130914 188.21570967 -28.78552246 181.567276 C-28.66695058 180.80509355 -28.54837871 180.04291109 -28.42621374 179.2576322 C-28.03494639 176.74930656 -27.63762441 174.24198143 -27.24023438 171.73461914 C-26.95563257 169.91838213 -26.67140743 168.10208606 -26.38752747 166.28573608 C-25.62076974 161.38689047 -24.8487098 156.48889415 -24.07559395 151.59104848 C-23.26564176 146.45426798 -22.46043943 141.3167429 -21.65466309 136.17930603 C-20.30241303 127.56203953 -18.94699305 118.9452767 -17.58935547 110.32885742 C-15.84696485 99.27048187 -14.10950867 88.21133715 -12.37371063 77.15192509 C-10.87948304 67.63167889 -9.38336464 58.11173001 -7.88675117 48.59185863 C-7.56590612 46.5508067 -7.24512461 44.50974479 -6.92440605 42.46867299 C-6.01099049 36.65568206 -5.09657456 30.84285049 -4.18045616 25.03028488 C-3.90315653 23.26990628 -3.62620758 21.50947241 -3.34963417 19.74897957 C-2.97222622 17.34711064 -2.59352413 14.94544929 -2.21447754 12.5438385 C-2.05061373 11.49822481 -2.05061373 11.49822481 -1.88343954 10.43148762 C-1.32962118 6.93211062 -0.6953166 3.47658302 0 0 Z " fill="#1E1E1C" transform="translate(1525,235)"/>
<path d="M0 0 C6.63444549 -0.07660942 13.2687752 -0.12883271 19.90356445 -0.16479492 C22.1565375 -0.17980076 24.40948175 -0.20021191 26.66235352 -0.22631836 C29.91690214 -0.26306443 33.17106166 -0.27980894 36.42578125 -0.29296875 C37.41894852 -0.30845261 38.41211578 -0.32393646 39.43537903 -0.33988953 C51.8334726 -0.3428154 64.14922115 3.17224258 73.375 11.75 C80.98627327 19.88406779 82.37915168 29.24742175 82.27734375 40.0390625 C81.19609855 55.48107141 75.54621973 68.66783707 64.2578125 79.41796875 C51.20683891 90.37248214 33.97200866 94.19734654 17.34765625 94.09765625 C16.44752304 94.0962413 15.54738983 94.09482635 14.61997986 94.09336853 C11.76745163 94.0878066 8.91500419 94.07526127 6.0625 94.0625 C4.11914176 94.05748008 2.17578229 94.05291803 0.23242188 94.04882812 C-4.5117495 94.03784966 -9.25586109 94.02061153 -14 94 C-13.38091212 83.51637447 -11.72851059 73.24468521 -10.05859375 62.890625 C-9.76817274 61.06937727 -9.47814543 59.24806671 -9.18849182 57.42669678 C-8.43125063 52.67181276 -7.66872273 47.9177918 -6.9050293 43.16394043 C-6.12419939 38.29731102 -5.34845717 33.42987094 -4.57226562 28.5625 C-3.05310961 19.04087384 -1.52835815 9.52015311 0 0 Z M20 20 C18.85739873 27.06531031 17.71843871 34.1312006 16.58203125 41.19750977 C16.19485331 43.60226802 15.80683611 46.00689131 15.41796875 48.41137695 C14.85978015 51.86374494 14.30459279 55.31658405 13.75 58.76953125 C13.57500977 59.84773636 13.40001953 60.92594147 13.21972656 62.03681946 C13.05956055 63.03763046 12.89939453 64.03844147 12.734375 65.06958008 C12.59225586 65.95116287 12.45013672 66.83274567 12.30371094 67.74104309 C11.93337574 70.11566099 11.93337574 70.11566099 12 73 C31.95531291 73.60323426 31.95531291 73.60323426 49 64 C55.77808131 55.20445981 58.15650802 46.0087852 57 35 C55.50057898 29.54103005 52.6752815 26.1940206 48.07421875 23.0078125 C41.77151949 19.94548405 35.94271835 19.73896526 29.0625 19.875 C28.18787109 19.88402344 27.31324219 19.89304687 26.41210938 19.90234375 C24.27461936 19.9257043 22.13727214 19.96156753 20 20 Z " fill="#1E1E1C" transform="translate(753,94)"/>
<path d="M0 0 C1.375 1.375 1.375 1.375 3.25 3.6875 C3.91 1.7075 4.57 -0.2725 5.25 -2.3125 C12.18 -2.3125 19.11 -2.3125 26.25 -2.3125 C25.66830335 9.75553506 23.89302266 21.52855151 21.97631836 33.44677734 C21.43783307 36.8104195 20.91672691 40.17646288 20.39648438 43.54296875 C15.19834192 76.52741777 15.19834192 76.52741777 1.9375 87.5625 C-10.49079327 96.570357 -25.51395807 97.15577569 -40.27734375 95.2265625 C-47.43586606 93.62741823 -53.51033367 90.48288759 -59.75 86.6875 C-59.16246271 83.6124292 -58.29526011 81.80848863 -56.24609375 79.453125 C-55.75302734 78.87949219 -55.25996094 78.30585938 -54.75195312 77.71484375 C-54.23568359 77.12832031 -53.71941406 76.54179687 -53.1875 75.9375 C-52.66736328 75.33550781 -52.14722656 74.73351562 -51.61132812 74.11328125 C-50.33043726 72.63261841 -49.04103688 71.15932458 -47.75 69.6875 C-44.25753941 70.42555812 -41.67844075 71.89891765 -38.6015625 73.69921875 C-32.65685528 76.87223758 -26.21540741 77.61253732 -19.67578125 76.2578125 C-14.20837934 74.57072848 -10.68629954 71.59421107 -7.75 66.6875 C-6.76957067 63.99131933 -6.24893537 61.53143161 -5.75 58.6875 C-7.049375 59.615625 -7.049375 59.615625 -8.375 60.5625 C-16.15250609 65.45944828 -24.81696428 65.79561424 -33.75 64.6875 C-40.58665606 62.72917397 -46.10807621 58.84150984 -49.75 52.6875 C-54.5317782 42.2148603 -53.65820415 31.39660307 -50.00390625 20.7265625 C-45.94538631 10.89002508 -38.78260787 2.7991414 -29.0625 -1.75 C-20.01096355 -5.31100307 -8.20981506 -6.1573613 0 0 Z M-27.48828125 22.80078125 C-30.62363584 27.48925266 -31.24293521 32.3103169 -30.36328125 37.7578125 C-29.26296021 41.21996915 -27.3387366 43.16039999 -24.75 45.6875 C-19.81558151 47.33230616 -15.48589501 47.2777043 -10.625 45.625 C-5.64687705 42.27017801 -1.20459783 37.65135109 0.25 31.6875 C0.70737957 26.88501457 0.7584495 24.68556753 -1.4375 20.375 C-5.01619536 16.21597566 -7.16577131 14.83837892 -12.6875 14.3125 C-19.34548374 14.62478817 -23.4449713 17.73868454 -27.48828125 22.80078125 Z " fill="#1E1E1C" transform="translate(1019.75,123.3125)"/>
<path d="M0 0 C6.00428434 5.25671534 8.39443528 12.09630886 9.1953125 19.84765625 C9.67218139 31.01433615 5.17162541 40.20481534 -0.7109375 49.35546875 C-9.6942352 58.58155828 -21.04719118 63.58400763 -33.8359375 63.91796875 C-43.10480599 63.76556583 -50.66868743 61.59928459 -58.0234375 55.73046875 C-64.49165391 48.39537798 -66.52946466 40.64044822 -66.3359375 30.98828125 C-65.44629156 21.71372233 -62.46703648 13.50561757 -56.0234375 6.73046875 C-55.37503906 6.04210937 -54.72664062 5.35375 -54.05859375 4.64453125 C-39.55783734 -9.46289542 -16.5800426 -11.8638114 0 0 Z M-40.76171875 19.9140625 C-44.11756204 24.74523009 -44.3318494 28.97760271 -43.48828125 34.6171875 C-42.83276924 37.59728832 -42.05391959 39.42925571 -40.0234375 41.73046875 C-35.78334721 44.41297485 -32.9984203 45.04454552 -28.0234375 44.35546875 C-22.53768537 42.97776844 -19.20663844 40.36859532 -16.0234375 35.73046875 C-13.0224804 29.93623325 -12.44786372 25.03276389 -14.0234375 18.73046875 C-16.17050666 15.32477284 -18.12760853 12.92086093 -22.0234375 11.73046875 C-30.45498373 11.05050534 -35.4629579 13.25236579 -40.76171875 19.9140625 Z " fill="#1E1E1C" transform="translate(950.0234375,126.26953125)"/>
<path d="M0 0 C6.06929561 4.82632179 8.98112562 10.06550992 10.26953125 17.671875 C11.0482332 25.1176656 10.29287384 29.80516203 8.7421875 37.55859375 C-6.7678125 37.55859375 -22.2778125 37.55859375 -38.2578125 37.55859375 C-35.9971501 44.12303889 -35.9971501 44.12303889 -33.1953125 46.49609375 C-28.14549929 48.32262193 -23.03662735 48.55503746 -17.9375 46.7265625 C-14.86764772 45.2142921 -12.1065745 43.45776841 -9.2578125 41.55859375 C-4.9678125 44.52859375 -0.6778125 47.49859375 3.7421875 50.55859375 C2.28859371 56.37296891 -1.34816284 58.39819053 -6.2578125 61.55859375 C-17.74866982 67.30402241 -30.39197703 68.41256295 -42.71875 64.59375 C-50.04560865 61.60664609 -54.93065183 56.69784538 -58.2578125 49.55859375 C-61.84948511 39.89304548 -60.4398181 30.16122986 -57.2578125 20.55859375 C-51.76722664 9.13103295 -43.7655553 2.03846693 -32.0546875 -2.53125 C-21.68502509 -5.90573511 -9.412752 -6.00917904 0 0 Z M-36.2578125 21.55859375 C-36.2578125 21.88859375 -36.2578125 22.21859375 -36.2578125 22.55859375 C-27.3478125 22.55859375 -18.4378125 22.55859375 -9.2578125 22.55859375 C-10.18157304 16.33869768 -10.18157304 16.33869768 -14.44921875 12.47265625 C-23.39284929 7.95254924 -31.20020313 14.5640276 -36.2578125 21.55859375 Z " fill="#1E1E1C" transform="translate(1194.2578125,123.44140625)"/>
<path d="M0 0 C7.59 0 15.18 0 23 0 C22.6390625 2.31515625 22.278125 4.6303125 21.90625 7.015625 C21.55661012 9.29915929 21.21005121 11.58314183 20.86376953 13.8671875 C20.6244612 15.43473739 20.3820341 17.00181487 20.13623047 18.56835938 C17.35814151 32.33037424 17.35814151 32.33037424 18 46 C20.23344572 47.9648156 20.23344572 47.9648156 23 49 C26.67676135 48.41945873 29.19277576 47.56057239 32.25 45.4375 C37.75420551 37.77092803 38.25847959 27.23653759 39.625 18.125 C39.94882158 16.00473965 40.27487469 13.88485483 40.60360718 11.76535034 C40.89845756 9.85872074 41.18695574 7.95111199 41.47509766 6.04345703 C42 3 42 3 43 0 C50.26 0 57.52 0 65 0 C64.4217604 12.39601141 62.51950853 24.49413164 60.56152344 36.73583984 C59.99481669 40.28243848 59.43817878 43.83051588 58.8828125 47.37890625 C58.52662546 49.63290483 58.16987556 51.88681456 57.8125 54.140625 C57.64580811 55.20194641 57.47911621 56.26326782 57.30737305 57.35675049 C57.15051025 58.33247009 56.99364746 59.3081897 56.83203125 60.31347656 C56.69514893 61.17281799 56.5582666 62.03215942 56.41723633 62.9175415 C56 65 56 65 55 67 C47.74 67 40.48 67 33 67 C33 65.02 33 63.04 33 61 C32.319375 61.598125 31.63875 62.19625 30.9375 62.8125 C24.45419703 67.64049157 17.65117398 69.43616443 9.671875 68.8203125 C3.8487544 67.8497924 -0.23323895 65.57319499 -4 61 C-10.6145354 50.4544062 -6.39200701 35.48321939 -4.49145508 24.02416992 C-4.05839477 21.41274481 -3.63843243 18.79946425 -3.22070312 16.18554688 C-2.95126237 14.51810917 -2.68110658 12.85078682 -2.41015625 11.18359375 C-2.28407486 10.40551865 -2.15799347 9.62744354 -2.02809143 8.82579041 C-1.52251905 5.78588828 -0.97631991 2.92895972 0 0 Z " fill="#1E1E1C" transform="translate(1062,121)"/>
<path d="M0 0 C6.4429461 7.39043817 6.68133637 15.78159681 6.28109741 25.21353149 C5.76998487 32.49551131 4.38020513 39.69267133 3.125 46.875 C2.83481558 48.58900314 2.54574651 50.3031955 2.2578125 52.01757812 C1.56168492 56.16033736 0.84301225 60.29824486 0.125 64.4375 C-6.805 64.4375 -13.735 64.4375 -20.875 64.4375 C-20.875 62.7875 -20.875 61.1375 -20.875 59.4375 C-21.40609375 59.78683594 -21.9371875 60.13617188 -22.484375 60.49609375 C-23.19078125 60.95113281 -23.8971875 61.40617187 -24.625 61.875 C-25.32109375 62.32746094 -26.0171875 62.77992188 -26.734375 63.24609375 C-32.80221144 66.62326549 -40.15285243 66.06770134 -46.875 65.4375 C-52.00565853 63.94773847 -56.43028721 61.74798194 -59.5 57.25 C-62.10372456 51.57363367 -61.61674699 45.1241271 -59.875 39.25 C-56.84824752 32.24886692 -50.14642643 27.94451424 -43.26953125 25.21484375 C-33.87179341 22.16402837 -24.64533198 22.200164 -14.875 22.4375 C-15.83828538 17.5509058 -15.83828538 17.5509058 -18.875 13.9375 C-25.93120257 12.76146624 -31.97117472 13.94180871 -38.0859375 17.59765625 C-39.875 18.4375 -39.875 18.4375 -43.875 18.4375 C-46.015625 16.03125 -46.015625 16.03125 -48.125 12.9375 C-48.83140625 11.9165625 -49.5378125 10.895625 -50.265625 9.84375 C-50.79671875 9.0496875 -51.3278125 8.255625 -51.875 7.4375 C-40.11477454 -6.75587555 -15.41115886 -8.37562982 0 0 Z M-38.5625 40.8125 C-40.06399631 43.34922952 -40.06399631 43.34922952 -39.9375 46.125 C-39.05543101 48.57763026 -39.05543101 48.57763026 -36.8125 49.8125 C-31.40194546 50.96368182 -27.38282699 50.20563828 -22.5625 47.75 C-19.5551043 45.16224091 -18.26223109 43.13678291 -16.875 39.4375 C-16.875 38.1175 -16.875 36.7975 -16.875 35.4375 C-24.72877656 35.05747855 -32.43269768 35.39546539 -38.5625 40.8125 Z " fill="#1E1E1C" transform="translate(1361.875,123.5625)"/>
<path d="M0 0 C-1.32 6.6 -2.64 13.2 -4 20 C-6.97 20 -9.94 20 -13 20 C-17.55463622 21.36639087 -21.07175976 23.09543589 -23.94921875 27.00390625 C-28.76957091 36.1607834 -29.12159158 48.60176871 -30.64282227 58.6809082 C-30.80451904 59.74011475 -30.96621582 60.79932129 -31.1328125 61.890625 C-31.27605957 62.85000977 -31.41930664 63.80939453 -31.56689453 64.79785156 C-32 67 -32 67 -33 68 C-34.63472882 68.08700342 -36.27314055 68.10701063 -37.91015625 68.09765625 C-38.89951172 68.09443359 -39.88886719 68.09121094 -40.90820312 68.08789062 C-41.94912109 68.07951172 -42.99003906 68.07113281 -44.0625 68.0625 C-45.10728516 68.05798828 -46.15207031 68.05347656 -47.22851562 68.04882812 C-49.81906936 68.03699911 -52.40949746 68.01967834 -55 68 C-54.3828511 59.81451088 -53.26249229 51.77354182 -51.93359375 43.67578125 C-51.73524429 42.44836716 -51.53689484 41.22095306 -51.33253479 39.9563446 C-50.70439961 36.07447879 -50.07103716 32.19348745 -49.4375 28.3125 C-49.0076896 25.66483877 -48.57902517 23.01699244 -48.15039062 20.36914062 C-47.10423265 13.91210898 -46.05338898 7.45585576 -45 1 C-37.74 1 -30.48 1 -23 1 C-23 2.98 -23 4.96 -23 7 C-22.50371094 6.59007813 -22.00742187 6.18015625 -21.49609375 5.7578125 C-15.60064877 1.081729 -7.6037426 -3.8018713 0 0 Z " fill="#1E1E1C" transform="translate(888,120)"/>
<path d="M0 0 C0.495 0.495 0.495 0.495 1 1 C0.48835292 7.44675319 -0.64157896 13.68268273 -2 20 C-5 21 -5 21 -8.1875 20.8125 C-12.81730031 21.0401951 -16.31288932 22.15674352 -20 25 C-24.10751268 29.93662172 -25.05085701 34.66020773 -26.0625 40.8125 C-26.22459961 41.72797607 -26.38669922 42.64345215 -26.55371094 43.58666992 C-26.88517574 45.46686985 -27.21053406 47.3481565 -27.52978516 49.23046875 C-28.10355415 52.60992639 -28.70739524 55.98359358 -29.31323242 59.35742188 C-29.88475838 62.56997919 -30.44091381 65.78525443 -31 69 C-38.59 69 -46.18 69 -54 69 C-51.57809213 52.34551866 -49.14294171 35.69278062 -46.57675171 19.05981445 C-46.35887572 17.64466852 -46.14242504 16.22930242 -45.92739868 14.8137207 C-45.62753373 12.84263984 -45.32173488 10.87246443 -45.015625 8.90234375 C-44.84321289 7.78335693 -44.67080078 6.66437012 -44.49316406 5.51147461 C-44 3 -44 3 -43 2 C-41.43827255 1.91314397 -39.87270656 1.89297781 -38.30859375 1.90234375 C-37.36435547 1.90556641 -36.42011719 1.90878906 -35.44726562 1.91210938 C-34.45404297 1.92048828 -33.46082031 1.92886719 -32.4375 1.9375 C-31.44041016 1.94201172 -30.44332031 1.94652344 -29.41601562 1.95117188 C-26.94395151 1.96299993 -24.47200482 1.97948151 -22 2 C-21.505 4.97 -21.505 4.97 -21 8 C-20.175 7.236875 -19.35 6.47375 -18.5 5.6875 C-12.94968459 1.09053289 -7.21218498 -0.58874979 0 0 Z " fill="#1E1E1C" transform="translate(1265,119)"/>
<path d="M0 0 C7.59 0 15.18 0 23 0 C17.13675008 39.38149528 17.13675008 39.38149528 14.6875 54.875 C14.52862305 55.89392334 14.36974609 56.91284668 14.20605469 57.96264648 C14.05942383 58.87989502 13.91279297 59.79714355 13.76171875 60.7421875 C13.5754895 61.91563721 13.5754895 61.91563721 13.38549805 63.11279297 C13 65 13 65 12 67 C4.74 67 -2.52 67 -10 67 C-9.42441128 58.47154847 -8.54104021 50.11682569 -7.1875 41.6796875 C-7.01371826 40.57319855 -6.83993652 39.46670959 -6.66088867 38.32669067 C-6.29685005 36.01558894 -5.9303738 33.70486992 -5.56152344 31.39453125 C-4.9959913 27.84987415 -4.43882408 24.30397422 -3.8828125 20.7578125 C-3.52652647 18.50252752 -3.16977274 16.24731638 -2.8125 13.9921875 C-2.64580811 12.93289032 -2.47911621 11.87359314 -2.30737305 10.78219604 C-2.07207886 9.3138884 -2.07207886 9.3138884 -1.83203125 7.81591797 C-1.69514893 6.95578094 -1.5582666 6.09564392 -1.41723633 5.20944214 C-1 3 -1 3 0 0 Z " fill="#1E1E1C" transform="translate(1274,121)"/>
<path d="M0 0 C7.92 0 15.84 0 24 0 C20.36704198 3.63295802 16.72097722 7.16038187 12.9375 10.625 C12.1630957 11.34042969 12.1630957 11.34042969 11.37304688 12.0703125 C9.92878255 13.39498806 8.46496627 14.69825556 7 16 C6.40832031 16.60199219 5.81664062 17.20398438 5.20703125 17.82421875 C1.56415609 19.76493631 -2.20003602 19.31089734 -6.25 19.1875 C-7.09046875 19.17396484 -7.9309375 19.16042969 -8.796875 19.14648438 C-10.86485938 19.11123464 -12.93251271 19.0574302 -15 19 C-12.64894019 14.67373009 -9.73553497 11.35243853 -6.375 7.8125 C-2.78597254 4.20218008 -2.78597254 4.20218008 0 0 Z " fill="#1E1E1C" transform="translate(1291,93)"/>
</svg>
